<svg width="64" height="64" viewBox="0 0 100 100" fill="none" xmlns="http://www.w3.org/2000/svg">
  <rect width="96" height="96" x="2" y="2" rx="22" fill="#0F172A" stroke="#F59E0B" stroke-width="2.5"/>
  <path d="M22 50 C22 34.5 34.5 22 50 22 C65.5 22 78 34.5 78 50 C78 65.5 65.5 78 50 78 C42 78 35 74.5 30 69" stroke="url(#waterGradOpt2)" stroke-width="9" stroke-linecap="round"/>
  <circle cx="28" cy="34" r="5" fill="#38BDF8"/>
  <path d="M55 24 L36 52 H50 L43 76 L66 48 H52 L57 24 Z" fill="url(#boltGradOpt2)"/>
  <rect x="42" y="14" width="4" height="8" rx="2" fill="#FBBF24"/>
  <rect x="54" y="14" width="4" height="8" rx="2" fill="#FBBF24"/>
  <defs>
    <linearGradient id="waterGradOpt2" x1="22" y1="22" x2="78" y2="78" gradientUnits="userSpaceOnUse">
      <stop offset="0%" stop-color="#0284C7"/>
      <stop offset="100%" stop-color="#2563EB"/>
    </linearGradient>
    <linearGradient id="boltGradOpt2" x1="36" y1="24" x2="66" y2="76" gradientUnits="userSpaceOnUse">
      <stop offset="0%" stop-color="#FDE047"/>
      <stop offset="100%" stop-color="#F59E0B"/>
    </linearGradient>
  </defs>
</svg>