<svg width="64" height="64" viewBox="0 0 100 100" fill="none" xmlns="http://www.w3.org/2000/svg">
  <rect width="100" height="100" rx="24" fill="#0F172A"/>
  <!-- Plumbing: Water Drop & Pipe Arc -->
  <path d="M50 18 C34 40 24 50 24 64 C24 78.36 35.64 90 50 90 C64.36 90 76 78.36 76 64 C76 50 66 40 50 18 Z" fill="url(#waterGrad)"/>
  <!-- Water Drop Inner Highlight -->
  <path d="M38 58 C38 48 44 40 50 30 C48 38 42 46 42 56 C42 62 45 68 50 72 C43 70 38 65 38 58 Z" fill="#FFFFFF" opacity="0.35"/>
  <!-- Electrical: Golden Lightning Bolt -->
  <path d="M54 26 L36 54 H50 L44 80 L66 50 H52 L58 26 Z" fill="url(#boltGrad)"/>
  <defs>
    <linearGradient id="waterGrad" x1="24" y1="18" x2="76" y2="90" gradientUnits="userSpaceOnUse">
      <stop offset="0%" stop-color="#38BDF8"/>
      <stop offset="100%" stop-color="#1D4ED8"/>
    </linearGradient>
    <linearGradient id="boltGrad" x1="36" y1="26" x2="66" y2="80" gradientUnits="userSpaceOnUse">
      <stop offset="0%" stop-color="#FBBF24"/>
      <stop offset="100%" stop-color="#F59E0B"/>
    </linearGradient>
  </defs>
</svg>