<svg width="420" height="100" viewBox="0 0 420 100" fill="none" xmlns="http://www.w3.org/2000/svg">
  <!-- Brand Icon Badge Option 2 -->
  <g transform="translate(10, 8)">
    <rect x="2" y="2" width="80" height="80" rx="20" fill="#0F172A" stroke="#F59E0B" stroke-width="2"/>
    <path d="M19 42 C19 29 29 19 42 19 C55 19 65 29 65 42 C65 55 55 65 42 65 C35 65 29 62 25 58" stroke="url(#waterGradOpt2)" stroke-width="7" stroke-linecap="round"/>
    <circle cx="24" cy="28" r="4" fill="#38BDF8"/>
    <path d="M46 20 L30 44 H42 L36 64 L55 41 H43 L48 20 Z" fill="url(#boltGradOpt2)"/>
    <rect x="35" y="12" width="3" height="7" rx="1.5" fill="#FBBF24"/>
    <rect x="45" y="12" width="3" height="7" rx="1.5" fill="#FBBF24"/>
  </g>

  <!-- Brand Typography -->
  <g transform="translate(108, 30)">
    <text x="0" y="18" font-family="system-ui, -apple-system, sans-serif" font-weight="900" font-size="20" fill="#0F172A" letter-spacing="1">SRI KEDARESWARA</text>
    <text x="0" y="38" font-family="system-ui, -apple-system, sans-serif" font-weight="800" font-size="17" fill="#2563EB" letter-spacing="2">ENTERPRISES</text>
    <text x="0" y="54" font-family="system-ui, -apple-system, sans-serif" font-weight="700" font-size="10" fill="#D97706" letter-spacing="1.5">PLUMBING &amp; ELECTRICAL SUPPLIES</text>
  </g>

  <defs>
    <linearGradient id="waterGradOpt2" x1="19" y1="19" x2="65" y2="65" gradientUnits="userSpaceOnUse">
      <stop offset="0%" stop-color="#0284C7"/>
      <stop offset="100%" stop-color="#2563EB"/>
    </linearGradient>
    <linearGradient id="boltGradOpt2" x1="30" y1="20" x2="55" y2="64" gradientUnits="userSpaceOnUse">
      <stop offset="0%" stop-color="#FDE047"/>
      <stop offset="100%" stop-color="#F59E0B"/>
    </linearGradient>
  </defs>
</svg>
